<svg width="330" height="200" viewBox="0 0 330 200" fill="none" xmlns="http://www.w3.org/2000/svg">
<path d="M0 5C0 2.23857 2.23858 0 5 0H325C327.761 0 330 2.23858 330 5V195C330 197.761 327.761 200 325 200H5C2.23857 200 0 197.761 0 195V5Z" fill="#E5F4FF"/>
<g clip-path="url(#clip0_4382_103)">
<path d="M330 0H0V200H330V0Z" fill="#FFF4E7"/>
<path d="M9.5 262C71.0797 262 121 212.08 121 150.5C121 88.9202 71.0797 39 9.5 39C-52.0798 39 -102 88.9202 -102 150.5C-102 212.08 -52.0798 262 9.5 262Z" fill="#FFDE6D"/>
<path fill-rule="evenodd" clip-rule="evenodd" d="M64.4386 189.127C108.489 189.436 144.209 117.436 181.871 140.335C216.683 161.501 189.589 218.977 177.745 258.018C169.624 284.788 151.202 306.679 127.115 320.829C108.345 331.855 85.3389 318.519 64.4386 324.579C23.4443 336.466 -16.9342 399.878 -49.2734 371.973C-80.6397 344.907 -11.7434 299.487 -12.6987 258.018C-13.7084 214.185 -87.3102 167.849 -54.6475 138.678C-21.2007 108.807 19.638 188.813 64.4386 189.127Z" fill="#215863"/>
<path d="M93.5703 103.422V99.9941H82.0391V103.422H93.5703ZM109.18 103.422V99.9941H97.6484V103.422H109.18ZM128.973 99.8711C128.639 96.2324 125.738 93.1738 120.975 93.1738C115.719 93.1738 112.273 96.8828 112.273 102.754C112.273 108.73 115.719 112.352 121.01 112.352C125.457 112.352 128.604 109.68 129.008 105.742H125.352C124.912 107.887 123.383 109.17 121.045 109.17C118.092 109.17 116.141 106.814 116.141 102.754C116.141 98.7812 118.074 96.3379 121.01 96.3379C123.488 96.3379 124.965 97.9023 125.352 99.8711H128.973ZM131.363 98.7461C131.363 101.436 133.104 103.123 136.619 103.932L139.625 104.635C141.646 105.092 142.332 105.795 142.332 106.99C142.332 108.502 140.926 109.451 138.641 109.451C136.32 109.451 135.002 108.502 134.65 106.568H130.889C131.24 110.084 134.018 112.352 138.641 112.352C143 112.352 146.146 110.031 146.146 106.656C146.146 103.984 144.705 102.508 140.926 101.629L137.92 100.943C135.916 100.486 135.072 99.6953 135.072 98.5352C135.072 97.0586 136.443 96.0566 138.5 96.0566C140.627 96.0566 141.945 97.1816 142.156 98.9746H145.725C145.602 95.5645 142.807 93.1738 138.5 93.1738C134.246 93.1738 131.363 95.4414 131.363 98.7461ZM148.766 98.7461C148.766 101.436 150.506 103.123 154.021 103.932L157.027 104.635C159.049 105.092 159.734 105.795 159.734 106.99C159.734 108.502 158.328 109.451 156.043 109.451C153.723 109.451 152.404 108.502 152.053 106.568H148.291C148.643 110.084 151.42 112.352 156.043 112.352C160.402 112.352 163.549 110.031 163.549 106.656C163.549 103.984 162.107 102.508 158.328 101.629L155.322 100.943C153.318 100.486 152.475 99.6953 152.475 98.5352C152.475 97.0586 153.846 96.0566 155.902 96.0566C158.029 96.0566 159.348 97.1816 159.559 98.9746H163.127C163.004 95.5645 160.209 93.1738 155.902 93.1738C151.648 93.1738 148.766 95.4414 148.766 98.7461ZM178.191 103.422V99.9941H166.66V103.422H178.191ZM197.791 93.5078H193.818L189.178 108.291H189.107L184.467 93.5078H180.424L187.086 112H191.164L197.791 93.5078ZM204.998 112.316C207.424 112.316 209.762 111.016 210.834 108.959H210.922V112H214.561V99.2559C214.561 95.5469 211.695 93.1738 207.213 93.1738C202.643 93.1738 199.795 95.6348 199.584 98.9746H203.17C203.504 97.3223 204.875 96.2676 207.072 96.2676C209.393 96.2676 210.781 97.498 210.781 99.5547V100.979L205.719 101.277C201.324 101.523 198.846 103.51 198.846 106.744C198.846 110.066 201.377 112.316 204.998 112.316ZM206.053 109.311C204.014 109.311 202.678 108.256 202.678 106.639C202.678 105.057 203.961 104.055 206.229 103.896L210.781 103.615V105.074C210.781 107.482 208.707 109.311 206.053 109.311ZM218.252 112H222.049V100.926C222.049 98.3066 223.561 96.6719 226.004 96.6719C226.742 96.6719 227.41 96.7598 227.709 96.8828V93.3496C227.428 93.2969 226.953 93.209 226.408 93.209C224.229 93.209 222.576 94.4922 221.961 96.6543H221.873V93.5078H218.252V112ZM232.086 90.5195C233.299 90.5195 234.266 89.5352 234.266 88.3398C234.266 87.127 233.299 86.1602 232.086 86.1602C230.873 86.1602 229.889 87.127 229.889 88.3398C229.889 89.5352 230.873 90.5195 232.086 90.5195ZM230.188 112H233.984V93.5078H230.188V112ZM243.283 112.316C245.709 112.316 248.047 111.016 249.119 108.959H249.207V112H252.846V99.2559C252.846 95.5469 249.98 93.1738 245.498 93.1738C240.928 93.1738 238.08 95.6348 237.869 98.9746H241.455C241.789 97.3223 243.16 96.2676 245.357 96.2676C247.678 96.2676 249.066 97.498 249.066 99.5547V100.979L244.004 101.277C239.609 101.523 237.131 103.51 237.131 106.744C237.131 110.066 239.662 112.316 243.283 112.316ZM244.338 109.311C242.299 109.311 240.963 108.256 240.963 106.639C240.963 105.057 242.246 104.055 244.514 103.896L249.066 103.615V105.074C249.066 107.482 246.992 109.311 244.338 109.311ZM266.381 112.316C271.074 112.316 274.098 108.625 274.098 102.754C274.098 96.9004 271.057 93.209 266.398 93.209C263.779 93.209 261.67 94.5098 260.562 96.6543H260.475V86.6348H256.678V112H260.369V108.854H260.439C261.582 110.998 263.674 112.316 266.381 112.316ZM265.361 96.4082C268.35 96.4082 270.195 98.8691 270.195 102.754C270.195 106.674 268.35 109.1 265.361 109.1C262.479 109.1 260.457 106.604 260.457 102.754C260.457 98.9395 262.479 96.4082 265.361 96.4082ZM277.209 112H281.006V86.6348H277.209V112ZM297.16 106.568C296.65 108.186 295.051 109.275 292.889 109.275C289.848 109.275 287.914 107.148 287.914 103.932V103.703H300.975V102.402C300.975 96.7949 297.775 93.1738 292.643 93.1738C287.422 93.1738 284.082 97.041 284.082 102.842C284.082 108.678 287.369 112.352 292.801 112.352C297.037 112.352 300.236 109.943 300.764 106.568H297.16ZM292.643 96.2324C295.297 96.2324 297.09 98.2188 297.178 101.049H287.932C288.125 98.2539 289.988 96.2324 292.643 96.2324ZM303.594 98.7461C303.594 101.436 305.334 103.123 308.85 103.932L311.855 104.635C313.877 105.092 314.562 105.795 314.562 106.99C314.562 108.502 313.156 109.451 310.871 109.451C308.551 109.451 307.232 108.502 306.881 106.568H303.119C303.471 110.084 306.248 112.352 310.871 112.352C315.23 112.352 318.377 110.031 318.377 106.656C318.377 103.984 316.936 102.508 313.156 101.629L310.15 100.943C308.146 100.486 307.303 99.6953 307.303 98.5352C307.303 97.0586 308.674 96.0566 310.73 96.0566C312.857 96.0566 314.176 97.1816 314.387 98.9746H317.955C317.832 95.5645 315.037 93.1738 310.73 93.1738C306.477 93.1738 303.594 95.4414 303.594 98.7461Z" fill="black"/>
</g>
<defs>
<clipPath id="clip0_4382_103">
<rect width="330" height="200" fill="white"/>
</clipPath>
</defs>
</svg>
